<?xml version="1.0" encoding="utf-8"?>
<!-- Generator: Adobe Illustrator 17.1.0, SVG Export Plug-In . SVG Version: 6.00 Build 0)  -->
<!DOCTYPE svg PUBLIC "-//W3C//DTD SVG 1.1//EN" "http://www.w3.org/Graphics/SVG/1.1/DTD/svg11.dtd">
<svg version="1.1" id="Layer_1" xmlns="http://www.w3.org/2000/svg" xmlns:xlink="http://www.w3.org/1999/xlink" x="0px" y="0px"
	 viewBox="0 0 2592 1728" enable-background="new 0 0 2592 1728" xml:space="preserve">
<g>
	<g id="T1">
		<path d="M797.8,454.1v-10.6H585.6v224.6h10.6C615.4,561.6,692.2,479,797.8,454.1z"/>
	</g>
	<g id="T2">
		<path d="M1027.2,1027.2L838.1,544.3v108.5v394.6c-1,48-40.3,85.4-90.2,87.4v9.6h90.2h19.2h14.4h110.4h19.2h90.2h52.8v-8.6
			C1074.2,1132.8,1041.6,1056,1027.2,1027.2z"/>
	</g>
	<path id="W1" d="M1350.7,826.6l-11.5-4.8c-5.8,8.6-37.4,37.4-62.4-27.8c-32.6-86.4-74.9-199.7-88.3-247.7
		c-24-85.4,42.2-89.3,60.5-89.3v-12.5H864V455c70.1,1.9,103.7,77.8,117.1,105.6l228.5,583.7h13.4l97-239l0,0L1350.7,826.6z"/>
	<g id="W2">
		<path d="M1600.3,563.5c28.8,81.6,124.8,340.8,124.8,340.8l-94.1,239h-13.4c0,0-212.2-549.1-222.7-577.9s-31.7-106.6-102.7-108.5
			v-12.5h375.4V457C1646.4,457,1568.6,471.4,1600.3,563.5z"/>
	</g>
	<g id="W3">
		<path d="M1799,648l12.5,9.6c32.6-84.5,122.9-190.1,202.6-201.6v-12.5h-284.2V456C1751,457,1872,455,1799,648z"/>
	</g>
</g>
</svg>
